<svg xmlns="http://www.w3.org/2000/svg" viewBox="0 0 120 120" role="img" aria-labelledby="title">
  <title id="title">English, United Kingdom and United States</title>
  <metadata>Original combined English-language flag artwork for Deltamod Community. Copyright 2026 cmdr-chara. EUPL-1.2.</metadata>
  <defs>
    <clipPath id="uk-half">
      <path d="M0 0h76L44 120H0Z"/>
    </clipPath>
    <clipPath id="us-half">
      <path d="M76 0h44v120H44Z"/>
    </clipPath>
  </defs>

  <g clip-path="url(#uk-half)">
    <rect width="120" height="120" fill="#012169"/>
    <path d="M0 0 120 120M120 0 0 120" stroke="#fff" stroke-width="28"/>
    <path d="M0 0 120 120M120 0 0 120" stroke="#c8102e" stroke-width="12"/>
    <path d="M60 0v120M0 60h120" stroke="#fff" stroke-width="34"/>
    <path d="M60 0v120M0 60h120" stroke="#c8102e" stroke-width="19"/>
  </g>

  <g clip-path="url(#us-half)">
    <rect width="120" height="120" fill="#fff"/>
    <g fill="#b31942">
      <path d="M0 0h120v10H0zm0 20h120v10H0zm0 20h120v10H0zm0 20h120v10H0zm0 20h120v10H0zm0 20h120v10H0z"/>
    </g>
    <path d="M58 0h62v64H58Z" fill="#0a3161"/>
    <g fill="#fff">
      <circle cx="68" cy="11" r="2.5"/><circle cx="82" cy="11" r="2.5"/><circle cx="96" cy="11" r="2.5"/><circle cx="110" cy="11" r="2.5"/>
      <circle cx="75" cy="24" r="2.5"/><circle cx="89" cy="24" r="2.5"/><circle cx="103" cy="24" r="2.5"/><circle cx="117" cy="24" r="2.5"/>
      <circle cx="68" cy="37" r="2.5"/><circle cx="82" cy="37" r="2.5"/><circle cx="96" cy="37" r="2.5"/><circle cx="110" cy="37" r="2.5"/>
      <circle cx="75" cy="50" r="2.5"/><circle cx="89" cy="50" r="2.5"/><circle cx="103" cy="50" r="2.5"/><circle cx="117" cy="50" r="2.5"/>
    </g>
  </g>

  <path d="M76 0 44 120" stroke="#fff" stroke-width="5"/>
  <path d="M76 0 44 120" stroke="#111827" stroke-width="1.5"/>
</svg>
